<mxfile host="app.diagrams.net" modified="2022-05-01T00:26:45.670Z" agent="5.0 (Windows NT 10.0; Win64; x64) AppleWebKit/537.36 (KHTML, like Gecko) Chrome/100.0.4896.88 Safari/537.36" etag="u0oW5yhegQZLnHdJrfEY" version="15.8.3" type="github">
  <diagram id="b4rZfem3DLPub3dzyKSS" name="第 1 页">
    <mxGraphModel dx="1422" dy="772" grid="1" gridSize="10" guides="1" tooltips="1" connect="1" arrows="1" fold="1" page="1" pageScale="1" pageWidth="827" pageHeight="1169" math="0" shadow="0">
      <root>
        <mxCell id="0" />
        <mxCell id="1" parent="0" />
        <mxCell id="OFuD6E3bf-asGs5xN1KW-10" value="" style="group" vertex="1" connectable="0" parent="1">
          <mxGeometry x="190" y="180" width="130" height="290" as="geometry" />
        </mxCell>
        <mxCell id="OFuD6E3bf-asGs5xN1KW-6" value="" style="rounded=0;whiteSpace=wrap;html=1;" vertex="1" parent="OFuD6E3bf-asGs5xN1KW-10">
          <mxGeometry width="130" height="290" as="geometry" />
        </mxCell>
        <mxCell id="OFuD6E3bf-asGs5xN1KW-2" value="员工管理" style="rounded=0;whiteSpace=wrap;html=1;fillColor=#FF9933;" vertex="1" parent="OFuD6E3bf-asGs5xN1KW-10">
          <mxGeometry x="15" y="50" width="100" height="30" as="geometry" />
        </mxCell>
        <mxCell id="OFuD6E3bf-asGs5xN1KW-3" value="患者管理" style="rounded=0;whiteSpace=wrap;html=1;fillColor=#FF9933;" vertex="1" parent="OFuD6E3bf-asGs5xN1KW-10">
          <mxGeometry x="15" y="100" width="100" height="30" as="geometry" />
        </mxCell>
        <mxCell id="OFuD6E3bf-asGs5xN1KW-4" value="客户管理" style="rounded=0;whiteSpace=wrap;html=1;fillColor=#FF9933;" vertex="1" parent="OFuD6E3bf-asGs5xN1KW-10">
          <mxGeometry x="15" y="150" width="100" height="30" as="geometry" />
        </mxCell>
        <mxCell id="OFuD6E3bf-asGs5xN1KW-5" value="基础SDK" style="rounded=0;whiteSpace=wrap;html=1;fillColor=#FF9933;" vertex="1" parent="OFuD6E3bf-asGs5xN1KW-10">
          <mxGeometry x="15" y="200" width="100" height="30" as="geometry" />
        </mxCell>
        <mxCell id="OFuD6E3bf-asGs5xN1KW-7" value="...." style="rounded=0;whiteSpace=wrap;html=1;fillColor=#FF9933;" vertex="1" parent="OFuD6E3bf-asGs5xN1KW-10">
          <mxGeometry x="15" y="250" width="100" height="30" as="geometry" />
        </mxCell>
        <mxCell id="OFuD6E3bf-asGs5xN1KW-9" value="基础服务" style="text;html=1;strokeColor=none;fillColor=none;align=center;verticalAlign=middle;whiteSpace=wrap;rounded=0;" vertex="1" parent="OFuD6E3bf-asGs5xN1KW-10">
          <mxGeometry x="35" width="60" height="30" as="geometry" />
        </mxCell>
      </root>
    </mxGraphModel>
  </diagram>
</mxfile>
